<svg width="720" height="548" viewBox="0 0 720 548" fill="none" xmlns="http://www.w3.org/2000/svg">
<mask id="mask0" mask-type="alpha" maskUnits="userSpaceOnUse" x="0" y="0" width="720" height="548">
<path d="M0 0H720V548H0V0Z" fill="#1F1F1F"/>
</mask>
<g mask="url(#mask0)">
<path d="M49.4817 137H104.607L131.113 59.8169C132.265 55.9578 133.61 51.5197 133.994 46.8887H134.954C135.146 51.5197 136.491 55.9578 137.835 59.8169L164.149 137H219.274L265.756 0H216.393L194.497 76.9901C193.152 82.007 191.808 86.831 191.808 91.6549H190.848C190.463 86.831 188.543 81.6211 186.814 76.9901L160.308 0H108.448L81.9421 76.9901C80.2134 81.6211 78.2927 86.831 77.9085 91.6549H76.9482C76.9482 86.831 75.6037 82.007 74.2591 76.9901L52.3628 0H3L49.4817 137Z" fill="black"/>
<path d="M331.152 137H390.695L456 0H401.451L365.726 84.3225C363.421 89.7254 362.268 94.1634 361.308 98.9873H360.54C359.579 94.1634 358.427 89.7254 356.122 84.3225L320.396 0H265.848L331.152 137Z" fill="black"/>
<path d="M49.4817 274H104.607L131.113 196.817C132.265 192.958 133.61 188.52 133.994 183.889H134.954C135.146 188.52 136.491 192.958 137.835 196.817L164.149 274H219.274L265.756 137H216.393L194.497 213.99C193.152 219.007 191.808 223.831 191.808 228.655H190.848C190.463 223.831 188.543 218.621 186.814 213.99L160.308 137H108.448L81.9421 213.99C80.2134 218.621 78.2927 223.831 77.9085 228.655H76.9482C76.9482 223.831 75.6037 219.007 74.2591 213.99L52.3628 137H3L49.4817 274Z" fill="black"/>
<path d="M331.152 274H390.695L456 137H401.451L365.726 221.323C363.421 226.725 362.268 231.163 361.308 235.987H360.54C359.579 231.163 358.427 226.725 356.122 221.323L320.396 137H265.848L331.152 274Z" fill="black"/>
<path d="M49.4817 411H104.607L131.113 333.817C132.265 329.958 133.61 325.52 133.994 320.889H134.954C135.146 325.52 136.491 329.958 137.835 333.817L164.149 411H219.274L265.756 274H216.393L194.497 350.99C193.152 356.007 191.808 360.831 191.808 365.655H190.848C190.463 360.831 188.543 355.621 186.814 350.99L160.308 274H108.448L81.9421 350.99C80.2134 355.621 78.2927 360.831 77.9085 365.655H76.9482C76.9482 360.831 75.6037 356.007 74.2591 350.99L52.3628 274H3L49.4817 411Z" fill="black"/>
<path d="M331.152 411H390.695L456 274H401.451L365.726 358.323C363.421 363.725 362.268 368.163 361.308 372.987H360.54C359.579 368.163 358.427 363.725 356.122 358.323L320.396 274H265.848L331.152 411Z" fill="black"/>
<path d="M49.4817 548H104.607L131.113 470.817C132.265 466.958 133.61 462.52 133.994 457.889H134.954C135.146 462.52 136.491 466.958 137.835 470.817L164.149 548H219.274L265.756 411H216.393L194.497 487.99C193.152 493.007 191.808 497.831 191.808 502.655H190.848C190.463 497.831 188.543 492.621 186.814 487.99L160.308 411H108.448L81.9421 487.99C80.2134 492.621 78.2927 497.831 77.9085 502.655H76.9482C76.9482 497.831 75.6037 493.007 74.2591 487.99L52.3628 411H3L49.4817 548Z" fill="black"/>
<path d="M331.152 548H390.695L456 411H401.451L365.726 495.323C363.421 500.725 362.268 505.163 361.308 509.987H360.54C359.579 505.163 358.427 500.725 356.122 495.323L320.396 411H265.848L331.152 548Z" fill="black"/>
<path d="M503.482 137H558.607L585.113 59.8169C586.265 55.9578 587.61 51.5197 587.994 46.8887H588.954C589.146 51.5197 590.491 55.9578 591.835 59.8169L618.149 137H673.274L719.756 0H670.393L648.497 76.9901C647.152 82.007 645.808 86.831 645.808 91.6549H644.848C644.463 86.831 642.543 81.6211 640.814 76.9901L614.308 0H562.448L535.942 76.9901C534.213 81.6211 532.293 86.831 531.909 91.6549H530.948C530.948 86.831 529.604 82.007 528.259 76.9901L506.363 0H457L503.482 137Z" fill="black"/>
<path d="M503.482 274H558.607L585.113 196.817C586.265 192.958 587.61 188.52 587.994 183.889H588.954C589.146 188.52 590.491 192.958 591.835 196.817L618.149 274H673.274L719.756 137H670.393L648.497 213.99C647.152 219.007 645.808 223.831 645.808 228.655H644.848C644.463 223.831 642.543 218.621 640.814 213.99L614.308 137H562.448L535.942 213.99C534.213 218.621 532.293 223.831 531.909 228.655H530.948C530.948 223.831 529.604 219.007 528.259 213.99L506.363 137H457L503.482 274Z" fill="black"/>
<path d="M503.482 411H558.607L585.113 333.817C586.265 329.958 587.61 325.52 587.994 320.889H588.954C589.146 325.52 590.491 329.958 591.835 333.817L618.149 411H673.274L719.756 274H670.393L648.497 350.99C647.152 356.007 645.808 360.831 645.808 365.655H644.848C644.463 360.831 642.543 355.621 640.814 350.99L614.308 274H562.448L535.942 350.99C534.213 355.621 532.293 360.831 531.909 365.655H530.948C530.948 360.831 529.604 356.007 528.259 350.99L506.363 274H457L503.482 411Z" fill="black"/>
<path d="M503.482 548H558.607L585.113 470.817C586.265 466.958 587.61 462.52 587.994 457.889H588.954C589.146 462.52 590.491 466.958 591.835 470.817L618.149 548H673.274L719.756 411H670.393L648.497 487.99C647.152 493.007 645.808 497.831 645.808 502.655H644.848C644.463 497.831 642.543 492.621 640.814 487.99L614.308 411H562.448L535.942 487.99C534.213 492.621 532.293 497.831 531.909 502.655H530.948C530.948 497.831 529.604 493.007 528.259 487.99L506.363 411H457L503.482 548Z" fill="black"/>
</g>
</svg>
